<svg width="80" height="68" viewBox="0 0 80 68" fill="none" xmlns="http://www.w3.org/2000/svg">
<g clip-path="url(#clip0_29_3127)">
<g clip-path="url(#clip1_29_3127)">
<g clip-path="url(#clip2_29_3127)">
<g clip-path="url(#clip3_29_3127)">
<g clip-path="url(#clip4_29_3127)">
<g clip-path="url(#clip5_29_3127)">
<g clip-path="url(#clip6_29_3127)">
<g clip-path="url(#clip7_29_3127)">
<path d="M17.1511 40.9975L18.8759 41.2836L18.8516 42.5947H10.0574L9.91166 41.8319C10.4785 41.4028 11.0858 41.0293 11.7337 40.7114L10.9806 38.7327H6.02474L5.17447 40.9498L7.14223 41.2836L7.11793 42.5947H0.14576L0 41.8319C0.550648 41.4028 1.23086 40.9895 2.04064 40.5922L7.06935 28.3388L6.65636 27.2183L11.0777 26.1455L17.1511 40.9975ZM6.85071 36.5395H10.1546L8.50265 32.1292L6.85071 36.5395ZM31.0711 31.1041L31.0954 32.3676L30.0265 33.0828L27.087 40.0916L25.9938 42.5232C25.3136 42.7139 24.4148 42.8093 23.2973 42.8093C22.6332 42.8093 22.0745 42.7696 21.621 42.6901L18.0985 33.4881L16.5194 32.4391V31.1041H22.4713L24.269 36.7779L24.6091 38.3513H24.8763C25.2002 36.031 25.4513 33.6152 25.6294 31.1041H31.0711ZM35.6625 29.6499C34.3507 29.0619 33.2737 28.2514 32.4315 27.2183C33.1279 25.8992 34.0268 24.8264 35.1281 24C36.359 24.6834 37.3793 25.6052 38.189 26.7654C37.5736 27.9414 36.7315 28.903 35.6625 29.6499ZM37.8489 31.867V40.4969C38.5453 40.7829 39.1284 41.0928 39.5981 41.4266L39.5738 42.5947H31.144L31.1197 41.7604C31.638 41.4425 32.2534 41.1485 32.966 40.8783V33.1543L31.144 32.7014L31.0954 31.5332C32.6502 30.9929 34.4236 30.683 36.4156 30.6035L37.8489 31.867ZM52.7359 32.6775L49.6992 36.325C48.5007 35.3078 47.529 34.7277 46.784 34.5847V40.2108C47.9177 40.6081 48.8165 41.0134 49.4806 41.4266L49.4563 42.5947H40.1034L40.0791 41.7604C40.6297 41.4266 41.237 41.1405 41.9011 40.9021V33.1543L40.0791 32.7014L40.0305 31.5332C41.5852 30.9929 43.3587 30.683 45.3507 30.6035L46.784 32.7014L48.4845 30.7465C48.7923 30.6512 49.1324 30.6035 49.5049 30.6035C50.2337 30.6035 50.9058 30.7895 51.5212 31.1614C52.1366 31.5364 52.5415 32.0418 52.7359 32.6775ZM65.9271 39.9724L66 41.0452L62.5261 43C61.4248 43 60.5178 42.412 59.8052 41.2359L57.2787 42.8808L56.3556 42.9523C55.2705 42.9523 54.3635 42.6376 53.6347 42.0083C52.9059 41.3821 52.5415 40.6478 52.5415 39.8055C52.5415 39.2652 52.7164 38.7296 53.0663 38.1987C53.4128 37.6647 53.9262 37.2309 54.6065 36.8971L59.1736 36.8018V35.0138C59.1736 33.8377 58.8092 33.059 58.0804 32.6775C57.7241 32.7093 57.4245 32.7888 57.1815 32.9159L56.477 35.5859L53.7076 35.6098C53.4323 34.688 53.2946 33.798 53.2946 32.9398L53.3918 31.7716C54.4283 31.4061 55.5992 31.1121 56.9046 30.8896C58.2067 30.6671 59.2546 30.5558 60.0481 30.5558C61.6191 30.5558 62.8581 31.1439 63.765 32.32C63.9594 32.606 64.0565 33.3371 64.0565 34.5132V39.2811C64.0565 39.7737 64.2509 40.0201 64.6396 40.0201L65.4413 39.9962L65.9271 39.9724ZM57.303 39.4479C57.303 39.8453 57.4245 40.179 57.6674 40.4492L59.1736 40.1393V38.3513C57.9265 38.3513 57.303 38.7169 57.303 39.4479Z" fill="#DB6B97"/>
</g>
</g>
</g>
</g>
</g>
</g>
</g>
<path d="M46.1977 0C64.5631 0 79.4513 15.0467 79.4513 33.6074C79.4513 52.1682 64.5631 67.2149 46.1977 67.2149C32.034 67.2149 19.9385 58.2654 15.1452 45.6566H16.079C20.8274 57.7694 32.5226 66.3358 46.1977 66.3358C64.0828 66.3358 78.5815 51.6828 78.5815 33.6074C78.5815 15.532 64.0828 0.879068 46.1977 0.879068C32.5229 0.879068 20.8274 9.44543 16.079 21.5582H15.1452C19.9385 8.94948 32.0338 0 46.1977 0V0Z" fill="#DB6B97"/>
</g>
<defs>
<clipPath id="clip0_29_3127">
<rect width="80" height="68" fill="white"/>
</clipPath>
<clipPath id="clip1_29_3127">
<rect width="65.7623" height="19.4959" fill="white" transform="translate(0.387573 23.8595)"/>
</clipPath>
<clipPath id="clip2_29_3127">
<rect width="65.7623" height="19.4959" fill="white" transform="translate(0.387573 23.8595)"/>
</clipPath>
<clipPath id="clip3_29_3127">
<rect width="65.7623" height="19.4959" fill="white" transform="translate(0.387573 23.8595)"/>
</clipPath>
<clipPath id="clip4_29_3127">
<rect width="65.7623" height="19.4959" fill="white" transform="translate(0.387573 23.8595)"/>
</clipPath>
<clipPath id="clip5_29_3127">
<rect width="65.7623" height="19.4959" fill="white" transform="translate(0.387573 23.8595)"/>
</clipPath>
<clipPath id="clip6_29_3127">
<rect width="65.7623" height="19.4959" fill="white" transform="translate(0.387573 23.8595)"/>
</clipPath>
<clipPath id="clip7_29_3127">
<rect width="65.7623" height="19.4959" fill="white" transform="translate(0.387573 23.8595)"/>
</clipPath>
</defs>
</svg>
